<?xml version="1.0" encoding="UTF-8" standalone="no"?>
<!-- Generator: Adobe Illustrator 16.0.0, SVG Export Plug-In . SVG Version: 6.00 Build 0) -->

<svg
   version="1.1"
   id="Layer_1"
   x="0px"
   y="0px"
   width="50"
   height="50"
   viewBox="5.368 13.434 49.999999 50.000001"
   enable-background="new 5.368 13.434 53.9 37.855"
   xml:space="preserve"
   sodipodi:docname="4chan transparent.svg"
   inkscape:version="1.1 (c68e22c387, 2021-05-23)"
   xmlns:inkscape="http://www.inkscape.org/namespaces/inkscape"
   xmlns:sodipodi="http://sodipodi.sourceforge.net/DTD/sodipodi-0.dtd"
   xmlns="http://www.w3.org/2000/svg"
   xmlns:svg="http://www.w3.org/2000/svg"
   xmlns:rdf="http://www.w3.org/1999/02/22-rdf-syntax-ns#"
   xmlns:cc="http://creativecommons.org/ns#"
   xmlns:dc="http://purl.org/dc/elements/1.1/"><metadata
     id="metadata13"><rdf:RDF><cc:Work
         rdf:about=""><dc:format>image/svg+xml</dc:format><dc:type
           rdf:resource="http://purl.org/dc/dcmitype/StillImage" /><dc:title /></cc:Work></rdf:RDF></metadata><defs
     id="defs11"><linearGradient
       id="SVGID_1_"
       gradientUnits="userSpaceOnUse"
       x1="143.1424"
       y1="192"
       x2="143.1424"
       y2="77.719597"
       gradientTransform="matrix(0.10030527,0,0,0.10030455,4.6867545,12.952184)"><stop
         offset="0"
         stop-color="#298122"
         id="stop6" /><stop
         offset="0.2857"
         stop-color="#016701"
         id="stop8" /><stop
         offset="0.2858"
         stop-color="#44942E"
         id="stop10" /><stop
         offset="1"
         stop-color="#85BF5A"
         id="stop12" /></linearGradient><linearGradient
       id="SVGID_2_"
       gradientUnits="userSpaceOnUse"
       x1="369.39059"
       y1="192"
       x2="369.39059"
       y2="77.719597"
       gradientTransform="matrix(0.10030527,0,0,0.10030455,4.6867545,12.952184)"><stop
         offset="0"
         stop-color="#298122"
         id="stop21" /><stop
         offset="0.2857"
         stop-color="#016701"
         id="stop23" /><stop
         offset="0.2858"
         stop-color="#44942E"
         id="stop25" /><stop
         offset="1"
         stop-color="#85BF5A"
         id="stop27" /></linearGradient><linearGradient
       id="SVGID_3_"
       gradientUnits="userSpaceOnUse"
       x1="369.39059"
       y1="413"
       x2="369.39059"
       y2="316.91669"
       gradientTransform="matrix(0.10030527,0,0,0.10030455,4.6867545,12.952184)"><stop
         offset="0"
         stop-color="#298122"
         id="stop36" /><stop
         offset="0.2857"
         stop-color="#016701"
         id="stop38" /><stop
         offset="0.2858"
         stop-color="#44942E"
         id="stop40" /><stop
         offset="1"
         stop-color="#85BF5A"
         id="stop42" /></linearGradient><linearGradient
       id="SVGID_4_"
       gradientUnits="userSpaceOnUse"
       x1="157.3587"
       y1="413"
       x2="157.3587"
       y2="316.91669"
       gradientTransform="matrix(0.10030527,0,0,0.10030455,4.6867545,12.952184)"><stop
         offset="0"
         stop-color="#298122"
         id="stop51" /><stop
         offset="0.2857"
         stop-color="#016701"
         id="stop53" /><stop
         offset="0.2858"
         stop-color="#44942E"
         id="stop55" /><stop
         offset="1"
         stop-color="#85BF5A"
         id="stop57" /></linearGradient></defs><sodipodi:namedview
     pagecolor="#ffffff"
     bordercolor="#666666"
     borderopacity="1"
     objecttolerance="10"
     gridtolerance="10"
     guidetolerance="10"
     inkscape:pageopacity="0"
     inkscape:pageshadow="2"
     inkscape:window-width="1920"
     inkscape:window-height="1017"
     id="namedview9"
     showgrid="false"
     inkscape:zoom="14.903029"
     inkscape:cx="28.886745"
     inkscape:cy="26.538229"
     inkscape:window-x="1912"
     inkscape:window-y="-8"
     inkscape:window-maximized="1"
     inkscape:current-layer="Layer_1"
     inkscape:pagecheckerboard="0" /><path
     fill="none"
     stroke="#006600"
     stroke-width="3.76924"
     stroke-miterlimit="10"
     d="m 14.085358,22.84221 c 0,-2.587857 8.405582,-6.128606 12.407761,8.555981 0,0 -12.819014,2.497583 -14.584385,-0.371124 -1.765375,-2.868713 4.614044,-4.493648 4.614044,-5.516754 0,-1.023103 -2.43742,-0.08025 -2.43742,-2.668103 z"
     id="path2" /><path
     fill="none"
     stroke="#a4cf88"
     stroke-width="1.41345"
     stroke-miterlimit="10"
     d="m 14.085358,22.84221 c 0,-2.587857 8.405582,-6.128606 12.407761,8.555981 0,0 -12.819014,2.497583 -14.584385,-0.371124 -1.765375,-2.868713 4.614044,-4.493648 4.614044,-5.516754 0,-1.023103 -2.43742,-0.08025 -2.43742,-2.668103 z"
     id="path4" /><path
     fill="url(#SVGID_1_)"
     d="m 14.085358,22.84221 c 0,-2.587857 8.405582,-6.128606 12.407761,8.555981 0,0 -12.819014,2.497583 -14.584385,-0.371124 -1.765375,-2.868713 4.614044,-4.493648 4.614044,-5.516754 0,-1.023103 -2.43742,-0.08025 -2.43742,-2.668103 z"
     id="path15"
     style="fill:url(#SVGID_1_);stroke-width:0.100304" /><path
     fill="none"
     stroke="#006600"
     stroke-width="3.76924"
     stroke-miterlimit="10"
     d="m 45.350509,21.568345 c 2.587877,0 6.128653,8.405522 -8.556039,12.407672 0,0 -2.497602,-12.818923 0.37113,-14.584282 2.86873,-1.765361 4.493675,4.614012 5.51679,4.614012 1.023115,0 0.07021,-2.437402 2.668119,-2.437402 z"
     id="path17" /><path
     fill="none"
     stroke="#a4cf88"
     stroke-width="1.41345"
     stroke-miterlimit="10"
     d="m 45.350509,21.568345 c 2.587877,0 6.128653,8.405522 -8.556039,12.407672 0,0 -2.497602,-12.818923 0.37113,-14.584282 2.86873,-1.765361 4.493675,4.614012 5.51679,4.614012 1.023115,0 0.07021,-2.437402 2.668119,-2.437402 z"
     id="path19" /><path
     fill="url(#SVGID_2_)"
     d="m 45.350509,21.568345 c 2.587877,0 6.128653,8.405522 -8.556039,12.407672 0,0 -2.497602,-12.818923 0.37113,-14.584282 2.86873,-1.765361 4.493675,4.614012 5.51679,4.614012 1.023115,0 0.07021,-2.437402 2.668119,-2.437402 z"
     id="path30"
     style="fill:url(#SVGID_2_);stroke-width:0.100304" /><path
     fill="none"
     stroke="#006600"
     stroke-width="3.76924"
     stroke-miterlimit="10"
     d="m 46.213136,54.518388 c -0.160487,2.587857 -8.75665,5.607027 -11.866114,-9.298228 0,0 12.94941,-1.715208 14.534235,1.253807 1.594853,2.969012 -4.874836,4.212791 -4.935021,5.225863 -0.06018,1.033137 2.417357,0.240734 2.2669,2.818558 z"
     id="path32" /><path
     fill="none"
     stroke="#a4cf88"
     stroke-width="1.41345"
     stroke-miterlimit="10"
     d="m 46.213136,54.518388 c -0.160487,2.587857 -8.75665,5.607027 -11.866114,-9.298228 0,0 12.94941,-1.715208 14.534235,1.253807 1.594853,2.969012 -4.874836,4.212791 -4.935021,5.225863 -0.06018,1.033137 2.417357,0.240734 2.2669,2.818558 z"
     id="path34" /><path
     fill="url(#SVGID_3_)"
     d="m 46.213136,54.518388 c -0.160487,2.587857 -8.75665,5.607027 -11.866114,-9.298228 0,0 12.94941,-1.715208 14.534235,1.253807 1.594853,2.969012 -4.874836,4.212791 -4.935021,5.225863 -0.06018,1.033137 2.417357,0.240734 2.2669,2.818558 z"
     id="path45"
     style="fill:url(#SVGID_3_);stroke-width:0.100304" /><path
     fill="none"
     stroke="#006600"
     stroke-width="3.76924"
     stroke-miterlimit="10"
     d="m 17.184791,56.464299 c -2.577843,0.280851 -6.991277,-7.693361 7.181856,-13.250233 0,0 3.851724,12.477883 1.193636,14.544163 -2.65809,2.066271 -4.965113,-4.102458 -5.978197,-3.992122 -1.013083,0.110334 0.180551,2.427366 -2.397295,2.698192 z"
     id="path47" /><path
     fill="none"
     stroke="#a4cf88"
     stroke-width="1.41345"
     stroke-miterlimit="10"
     d="m 17.184791,56.464299 c -2.577843,0.280851 -6.991277,-7.693361 7.181856,-13.250233 0,0 3.851724,12.477883 1.193636,14.544163 -2.65809,2.066271 -4.965113,-4.102458 -5.978197,-3.992122 -1.013083,0.110334 0.180551,2.427366 -2.397295,2.698192 z"
     id="path49" /><path
     fill="url(#SVGID_4_)"
     d="m 17.184791,56.464299 c -2.577843,0.280851 -6.991277,-7.693361 7.181856,-13.250233 0,0 3.851724,12.477883 1.193636,14.544163 -2.65809,2.066271 -4.965113,-4.102458 -5.978197,-3.992122 -1.013083,0.110334 0.180551,2.427366 -2.397295,2.698192 z"
     id="path60"
     style="fill:url(#SVGID_4_);stroke-width:0.100304" /></svg>
