<?xml version="1.0" encoding="UTF-8" standalone="no"?>
<!-- Generator: Adobe Illustrator 16.0.0, SVG Export Plug-In . SVG Version: 6.00 Build 0) -->

<svg
   xmlns:dc="http://purl.org/dc/elements/1.1/"
   xmlns:cc="http://creativecommons.org/ns#"
   xmlns:rdf="http://www.w3.org/1999/02/22-rdf-syntax-ns#"
   xmlns:svg="http://www.w3.org/2000/svg"
   xmlns="http://www.w3.org/2000/svg"
   xmlns:sodipodi="http://sodipodi.sourceforge.net/DTD/sodipodi-0.dtd"
   xmlns:inkscape="http://www.inkscape.org/namespaces/inkscape"
   version="1.1"
   id="Layer_1"
   x="0px"
   y="0px"
   width="50"
   height="50"
   viewBox="5.368 13.434 49.999999 50.000001"
   enable-background="new 5.368 13.434 53.9 37.855"
   xml:space="preserve"
   sodipodi:docname="youtube.svg"
   inkscape:version="0.92.4 (5da689c313, 2019-01-14)"><metadata
     id="metadata13"><rdf:RDF><cc:Work
         rdf:about=""><dc:format>image/svg+xml</dc:format><dc:type
           rdf:resource="http://purl.org/dc/dcmitype/StillImage" /><dc:title></dc:title></cc:Work></rdf:RDF></metadata><defs
     id="defs11" /><sodipodi:namedview
     pagecolor="#ffffff"
     bordercolor="#666666"
     borderopacity="1"
     objecttolerance="10"
     gridtolerance="10"
     guidetolerance="10"
     inkscape:pageopacity="0"
     inkscape:pageshadow="2"
     inkscape:window-width="1680"
     inkscape:window-height="987"
     id="namedview9"
     showgrid="false"
     inkscape:zoom="10.538033"
     inkscape:cx="37.281735"
     inkscape:cy="23.123199"
     inkscape:window-x="1672"
     inkscape:window-y="-8"
     inkscape:window-maximized="1"
     inkscape:current-layer="Layer_1" /><circle
     style="opacity:1;fill:#cd201f;fill-opacity:1;stroke:none"
     id="path1932"
     cx="30.368"
     cy="38.433998"
     r="25" /><circle
     style="opacity:1;fill:#ffffff;fill-opacity:1;stroke:none;stroke-width:0.46588039"
     id="path1932-4"
     cx="30.632191"
     cy="37.879143"
     r="11.64701" /><path
     d="m 39.274551,38.588804 c -4.942,-2.641 -9.674,-5.069 -14.510998,-7.604 0,5.048 0,10.117 0,15.165 5.089998,-2.767 10.454998,-5.301 14.531998,-7.561 z"
     id="path2"
     inkscape:connector-curvature="0"
     style="fill:#ffffff" /><path
     d="m 39.274551,38.588804 c -4.942,-2.641 -13.771207,-9.257787 -13.771207,-9.257787 l 12.018207,10.228787 c 10e-4,0 -2.324,1.289 1.753,-0.971 z"
     id="path4"
     inkscape:connector-curvature="0"
     style="fill:#e8e0e0"
     sodipodi:nodetypes="cccc" /><path
     d="m 28.313996,58.020807 c -7.237256,-0.189 -9.709135,-0.359 -11.228501,-0.803 -1.027951,-0.295 -1.92124,-0.95 -2.576224,-1.9 -0.506221,-0.719 -0.9088,-1.816 -1.221134,-3.338003 -0.267916,-1.268 -0.372263,-2.323 -0.521026,-4.9 -0.227729,-5.816 -0.282017,-10.571 0,-15.884 0.232664,-2.934 0.345471,-6.417 1.890923,-8.449 0.729719,-0.951 1.578591,-1.563 2.531807,-1.816 1.48905,-0.401 7.833021,-0.718 14.400485,-0.718 6.552669,0 12.910736,0.317 14.401197,0.718 1.190817,0.317 2.307597,1.267 2.963288,2.492 1.410091,3.146 1.434773,7.058 1.57789,10.118 0.05918,1.458 0.05918,9.737 0,11.195 -0.222793,4.836 -0.401872,6.547 -0.908093,8.321 -0.313037,1.120003 -0.580257,1.711003 -1.042764,2.366003 -0.715612,0.992 -1.623705,1.668 -2.650946,1.922 -6.262897,0.668 -11.581035,0.813 -17.616902,0.676 z m 9.590692,-19.432003 c -3.484318,-2.641 -6.820573,-5.09 -10.230865,-7.625 0,5.048 0,10.118 0,15.166 3.588657,-2.767 7.371916,-5.302 10.245665,-7.562 z"
     id="path6"
     inkscape:connector-curvature="0"
     style="opacity:1;fill:#cd201f;fill-opacity:1;stroke-width:0.83966798" /></svg>